<svg xmlns="http://www.w3.org/2000/svg" width="69" height="69"><defs><clipPath clipPathUnits="userSpaceOnUse" id="cp1"><path d="M0 0h69v69H0z"/></clipPath></defs><style>.shp0{fill:#4575ca}</style><g id="Page 1" clip-path="url(#cp1)"><path id="Path 1" class="shp0" d="M13.71 8.64c3.37 0 6.09 2.73 6.09 6.09 0 3.37-2.72 6.1-6.09 6.1-3.37 0-6.1-2.73-6.1-6.1 0-3.36 2.73-6.09 6.1-6.09zm21.79 9.2c-1.07-1.92-2.9-1.97-4.07-.1l-5.74 9.17c-1.17 1.87-3.5 2.46-5.17 1.32-1.68-1.14-4.21-.71-5.64.97l-5.72 6.74c-1.42 1.68-.79 3.05 1.41 3.05h32.76c2.2 0 3.12-1.57 2.05-3.49L35.5 17.84z"/><path id="Path 2" fill-rule="evenodd" class="shp0" d="M41.71 54.39H2.07C.93 54.39 0 53.45 0 52.31V2.15C0 1.01.93.08 2.07.08h50.86c1.14 0 2.07.93 2.07 2.07v39.32c-7.22 0-13.08 5.75-13.29 12.92zM5.25 41.18h43.89V5.68H5.25v35.5z"/><path id="Path 3" fill-rule="evenodd" class="shp0" d="M67.84 54.78c0 7.09-5.75 12.84-12.84 12.84s-12.84-5.75-12.84-12.84S47.91 41.94 55 41.94s12.84 5.75 12.84 12.84zm-4.67-1.17h-7v-7h-2.34v7h-7v2.34h7v7h2.34v-7h7v-2.34z"/><path id="Path 4" d="M68.31 54.78c0 7.35-5.96 13.31-13.31 13.31-7.35 0-13.31-5.96-13.31-13.31 0-7.35 5.96-13.31 13.31-13.31 7.35 0 13.31 5.96 13.31 13.31z" fill="none" stroke="#fff" stroke-width="1.812"/></g></svg>