<svg xmlns="http://www.w3.org/2000/svg" width="92" height="76"><g id="Page 1"><path id="Path 1" class="shp0" fill="rgba(255,255,255, .1)" d="M17.96 10.99C4.28 22.16-2.8 36.55 1.04 54.52c3.84 17.93 24.02 26.44 37.35 16.26 5.28-4.03 6.57-9.52 5.46-15.57-1.04-5.65-4.61-9.93-10.26-11.01-3.68-.7-7.78.17-11.59.87-4.69.86-7.07-.19-8.08-4.85-1.59-7.34.24-14.1 5.42-19.34 4.52-4.57 9.71-8.56 14.99-12.26 3.03-2.12 3.82-4.19 2.05-8.63-6.36 3.73-13.02 6.58-18.42 10.99zM51.4 27.65c-4.16 8.63-5.74 17.66-3.4 27.13 4.33 17.57 23.93 26.08 37.18 16.16 5.03-3.76 7.34-10.22 5.56-16.44-1.76-6.16-5.99-10.14-12.29-10.91-3.13-.38-6.51.75-9.69 1.53-4.25 1.03-6.87-.44-7.8-4.62-1.65-7.34.07-14.12 5.21-19.4 4.48-4.6 9.68-8.59 14.94-12.33 2.9-2.06 4.15-4.01 2.74-7.63C70.33 4.48 57.56 14.9 51.41 27.65z"/></g></svg>